<svg width="24" height="24" viewBox="0 0 24 24" fill="none" xmlns="http://www.w3.org/2000/svg">
<g id="Iconly/Bold/Info Square">
<g id="Info Square">
<path id="Info Square_2" fill-rule="evenodd" clip-rule="evenodd" d="M7.67 1.9992H16.34C19.73 1.9992 22 4.3792 22 7.9192V16.0902C22 19.6202 19.73 21.9992 16.34 21.9992H7.67C4.28 21.9992 2 19.6202 2 16.0902V7.9192C2 4.3792 4.28 1.9992 7.67 1.9992ZM11.99 9.0602C11.52 9.0602 11.13 8.6692 11.13 8.1902C11.13 7.7002 11.52 7.3102 12.01 7.3102C12.49 7.3102 12.88 7.7002 12.88 8.1902C12.88 8.6692 12.49 9.0602 11.99 9.0602ZM12.87 15.7802C12.87 16.2602 12.48 16.6502 11.99 16.6502C11.51 16.6502 11.12 16.2602 11.12 15.7802V11.3602C11.12 10.8792 11.51 10.4802 11.99 10.4802C12.48 10.4802 12.87 10.8792 12.87 11.3602V15.7802Z" fill="#E40916"/>
</g>
</g>
</svg>
