<svg width="20" height="20" viewBox="0 0 20 20" fill="none" xmlns="http://www.w3.org/2000/svg">
<path fill-rule="evenodd" clip-rule="evenodd" d="M8.07041 9.29418C7.66937 9.29418 7.35227 9.60584 7.35227 10C7.35227 10.385 7.66937 10.7058 8.07041 10.7058H13.6663V15.0875C13.6663 17.3333 11.8104 19.1667 9.51603 19.1667H4.974C2.68899 19.1667 0.833008 17.3425 0.833008 15.0967V4.91251C0.833008 2.65751 2.69832 0.833344 4.98332 0.833344H9.53468C11.8104 0.833344 13.6663 2.65751 13.6663 4.90334V9.29418H8.07041ZM16.994 6.82853L19.6707 9.49603C19.8082 9.63353 19.8815 9.80769 19.8815 10.0002C19.8815 10.1835 19.8082 10.3669 19.6707 10.4952L16.994 13.1627C16.8565 13.3002 16.6732 13.3735 16.499 13.3735C16.3157 13.3735 16.1324 13.3002 15.9949 13.1627C15.7199 12.8877 15.7199 12.4385 15.9949 12.1635L17.4615 10.706H13.6665V9.29436H17.4615L15.9949 7.83686C15.7199 7.56186 15.7199 7.11269 15.9949 6.83769C16.2699 6.55353 16.719 6.55353 16.994 6.82853Z" fill="#E40916"/>
</svg>
