<svg width="26" height="26" viewBox="0 0 26 26" fill="none" xmlns="http://www.w3.org/2000/svg">
<path d="M25.9911 12.9931L14.142 0V7.78302H12.7655C9.35585 7.78302 6.15009 9.11087 3.73897 11.522C1.32785 13.9331 0 17.1389 0 20.5487V26L2.27405 23.5083C5.31596 20.1756 9.63396 18.2477 14.142 18.2039V25.9863L25.9911 12.9931ZM1.52364 22.0831V20.5487C1.52364 17.5459 2.69299 14.7226 4.81628 12.5993C6.93958 10.476 9.7627 9.30665 12.7655 9.30665H15.6654V3.93178L23.9293 12.9931L15.6654 22.0545V16.6797H14.2985C9.48935 16.6797 4.86469 18.6425 1.52364 22.0831Z" fill="white"/>
</svg>
