<svg width="20" height="20" viewBox="0 0 20 20" fill="none" xmlns="http://www.w3.org/2000/svg">
<g id="Iconly/Light/Video" opacity="0.5">
<g id="Video">
<path id="Stroke 1" fill-rule="evenodd" clip-rule="evenodd" d="M13.5808 12.9486C13.6482 14.4753 12.416 15.7663 10.8289 15.8312C10.712 15.8361 5.0128 15.8246 5.0128 15.8246C3.43334 15.9445 2.051 14.8096 1.92642 13.2886C1.91703 13.1753 1.91959 7.06015 1.91959 7.06015C1.84962 5.53179 3.08008 4.23748 4.66807 4.17014C4.78668 4.16439 10.4782 4.17506 10.4782 4.17506C12.0653 4.0568 13.4519 5.2 13.5748 6.72836C13.5833 6.83841 13.5808 12.9486 13.5808 12.9486Z" stroke="white" stroke-width="1.5" stroke-linecap="round" stroke-linejoin="round"/>
<path id="Stroke 3" d="M13.5835 8.31651L16.3277 6.07068C17.0077 5.51401 18.0277 5.99901 18.0268 6.87651L18.0168 13.0007C18.016 13.8782 16.9952 14.359 16.3168 13.8023L13.5835 11.5565" stroke="white" stroke-width="1.5" stroke-linecap="round" stroke-linejoin="round"/>
</g>
</g>
</svg>
